<svg width="445" height="237" viewBox="0 0 445 237" fill="none" xmlns="http://www.w3.org/2000/svg">
<g filter="url(#filter0_f_248_276)">
<rect x="1" y="26" width="443" height="147" rx="13" fill="#744E15"/>
</g>
<g filter="url(#filter1_f_248_276)">
<rect x="1" y="22" width="443" height="147" rx="13" fill="#FFB906"/>
</g>
<rect x="1" y="18" width="443" height="147" rx="13" fill="white"/>
<rect x="1.5" y="18.5" width="442" height="146" rx="12.5" stroke="#FFB906" stroke-opacity="0.2" stroke-linecap="round" stroke-linejoin="round"/>
<g filter="url(#filter2_f_248_276)">
<path d="M43.7857 109.538C43.7857 116.62 45.023 121.74 47.4977 124.898C49.9724 127.97 53.855 129.506 59.1457 129.506C64.0097 129.506 68.6177 128.396 72.9697 126.178C77.407 123.874 81.119 120.716 84.1057 116.706L87.0497 117.986C84.2337 125.239 79.327 131.042 72.3297 135.394C65.4177 139.66 58.1644 141.794 50.5697 141.794C40.671 141.794 33.503 139.319 29.0657 134.37C24.7137 129.335 22.5377 121.314 22.5377 110.306C22.5377 103.223 23.4337 95.8417 25.2257 88.1617C27.0177 80.4817 29.4924 73.6124 32.6497 67.5537C36.7457 59.7884 41.695 53.9004 47.4977 49.8897C53.3857 45.7937 59.9564 43.7457 67.2097 43.7457C74.0364 43.7457 79.2844 45.2391 82.9537 48.2257C86.7084 51.1271 88.5857 55.3511 88.5857 60.8977C88.5857 64.7377 87.8177 67.6817 86.2817 69.7297C84.7457 71.6924 82.527 72.6737 79.6257 72.6737C78.175 72.6737 76.8097 72.4177 75.5297 71.9057C74.335 71.3084 73.2684 70.4551 72.3297 69.3457C73.8657 68.5777 75.231 67.0417 76.4257 64.7377C77.6204 62.3484 78.2177 59.9591 78.2177 57.5697C78.2177 55.0951 77.535 53.1751 76.1697 51.8097C74.8044 50.4444 72.8844 49.7617 70.4097 49.7617C66.655 49.7617 62.943 52.0657 59.2737 56.6737C55.6044 61.1964 52.4044 67.4684 49.6737 75.4897C47.7964 80.9511 46.3457 86.6684 45.3217 92.6417C44.2977 98.5297 43.7857 104.162 43.7857 109.538ZM125.459 81.6337V82.5297L126.867 75.7457H145.299L136.083 119.266C135.912 120.034 135.784 120.759 135.699 121.442C135.613 122.039 135.571 122.679 135.571 123.362C135.571 125.239 135.997 126.647 136.851 127.586C137.704 128.439 139.027 128.866 140.819 128.866C143.037 128.866 145.043 127.842 146.835 125.794C148.627 123.66 150.077 120.674 151.187 116.834H156.563C153.832 124.684 150.291 130.615 145.939 134.626C141.587 138.551 136.552 140.514 130.835 140.514C127.165 140.514 124.221 139.49 122.003 137.442C119.869 135.394 118.632 132.492 118.291 128.738C115.645 132.663 112.701 135.607 109.459 137.57C106.301 139.532 102.888 140.514 99.2187 140.514C93.928 140.514 89.7467 138.722 86.6747 135.138C83.688 131.554 82.1947 126.476 82.1947 119.906C82.1947 115.127 82.92 110.135 84.3707 104.93C85.8214 99.7244 87.8267 94.9884 90.3867 90.7217C93.544 85.6871 97.2134 81.8471 101.395 79.2017C105.576 76.4711 110.141 75.1057 115.091 75.1057C118.419 75.1057 120.979 75.7031 122.771 76.8977C124.563 78.0071 125.459 79.5857 125.459 81.6337ZM124.307 87.9057C124.307 86.6257 123.837 85.5164 122.899 84.5777C121.96 83.5537 120.68 83.0417 119.059 83.0417C114.365 83.0417 110.184 86.9671 106.515 94.8177C102.931 102.668 101.139 110.434 101.139 118.114C101.139 121.442 101.608 123.959 102.547 125.666C103.485 127.287 105.149 128.098 107.539 128.098C109.757 128.098 111.891 127.031 113.939 124.898C116.072 122.764 117.48 120.076 118.163 116.834L124.307 87.9057ZM182.466 126.05C182.466 124.514 182.636 122.594 182.978 120.29C183.404 117.986 184.215 114.316 185.41 109.282C186.604 104.418 187.372 100.919 187.714 98.7857C188.055 96.6524 188.226 94.8604 188.226 93.4097C188.226 91.2764 187.842 89.6551 187.074 88.5457C186.306 87.4364 185.154 86.8817 183.618 86.8817C181.57 86.8817 179.65 87.9484 177.858 90.0817C176.151 92.1297 174.743 94.9884 173.634 98.6577L164.93 139.746H146.498L160.066 75.7457H178.498L177.09 82.4017C179.223 80.0124 181.527 78.2204 184.002 77.0257C186.476 75.8311 189.164 75.2337 192.066 75.2337C196.588 75.2337 200.087 76.4711 202.562 78.9457C205.036 81.4204 206.274 85.0044 206.274 89.6977C206.274 91.6604 206.018 94.0071 205.506 96.7377C205.079 99.3831 204.183 103.479 202.818 109.026C201.708 113.378 200.983 116.45 200.642 118.242C200.3 120.034 200.13 121.527 200.13 122.722C200.13 124.514 200.556 125.879 201.41 126.818C202.263 127.671 203.543 128.098 205.25 128.098C207.383 128.098 209.218 127.372 210.754 125.922C212.29 124.471 214.039 121.442 216.002 116.834H221.378C218.647 124.77 215.319 130.7 211.394 134.626C207.554 138.551 202.946 140.514 197.57 140.514C192.791 140.514 189.079 139.234 186.434 136.674C183.788 134.028 182.466 130.487 182.466 126.05ZM220.595 75.7457H224.819L228.659 58.0817L247.603 55.5217L243.251 75.7457H250.931L249.907 80.8657H242.227L234.035 119.266C233.864 120.034 233.736 120.759 233.651 121.442C233.565 122.039 233.523 122.679 233.523 123.362C233.523 125.068 233.907 126.306 234.675 127.074C235.528 127.756 236.893 128.098 238.771 128.098C241.16 128.098 243.421 127.074 245.555 125.026C247.688 122.892 249.267 120.162 250.291 116.834H255.667C252.936 124.599 249.267 130.487 244.659 134.498C240.051 138.508 234.76 140.514 228.787 140.514C224.52 140.514 221.149 139.191 218.675 136.546C216.285 133.815 215.091 130.018 215.091 125.154C215.091 124.044 215.176 122.807 215.347 121.442C215.517 119.991 215.773 118.455 216.115 116.834L223.795 80.8657H219.571L220.595 75.7457ZM296.719 86.8817C296.719 93.9644 293.817 100.151 288.015 105.442C282.212 110.647 275.3 113.463 267.279 113.89C267.193 115.34 267.108 116.45 267.023 117.218C267.023 117.9 267.023 118.498 267.023 119.01C267.023 122.935 267.663 125.708 268.943 127.33C270.308 128.951 272.74 129.762 276.239 129.762C280.249 129.762 283.919 128.866 287.247 127.074C290.66 125.196 294.543 121.783 298.895 116.834H303.247C298.297 124.855 292.921 130.828 287.119 134.754C281.316 138.594 274.959 140.514 268.047 140.514C261.476 140.514 256.484 138.807 253.071 135.394C249.743 131.98 248.079 126.903 248.079 120.162C248.079 115.298 248.847 110.135 250.383 104.674C251.919 99.2124 253.967 94.3484 256.527 90.0817C259.684 84.9617 263.439 81.1217 267.791 78.5617C272.228 75.9164 277.177 74.5937 282.639 74.5937C287.332 74.5937 290.831 75.6177 293.135 77.6657C295.524 79.6284 296.719 82.7004 296.719 86.8817ZM283.663 81.3777C280.761 81.3777 277.817 83.9804 274.831 89.1857C271.929 94.3057 269.753 100.492 268.303 107.746C273.252 107.404 277.561 105.143 281.231 100.962C284.985 96.6951 286.863 91.9164 286.863 86.6257C286.863 84.8337 286.607 83.5111 286.095 82.6577C285.583 81.8044 284.772 81.3777 283.663 81.3777ZM345.972 86.8817C345.972 93.9644 343.07 100.151 337.268 105.442C331.465 110.647 324.553 113.463 316.532 113.89C316.446 115.34 316.361 116.45 316.276 117.218C316.276 117.9 316.276 118.498 316.276 119.01C316.276 122.935 316.916 125.708 318.196 127.33C319.561 128.951 321.993 129.762 325.492 129.762C329.502 129.762 333.172 128.866 336.5 127.074C339.913 125.196 343.796 121.783 348.148 116.834H352.5C347.55 124.855 342.174 130.828 336.372 134.754C330.569 138.594 324.212 140.514 317.3 140.514C310.729 140.514 305.737 138.807 302.324 135.394C298.996 131.98 297.332 126.903 297.332 120.162C297.332 115.298 298.1 110.135 299.636 104.674C301.172 99.2124 303.22 94.3484 305.78 90.0817C308.937 84.9617 312.692 81.1217 317.044 78.5617C321.481 75.9164 326.43 74.5937 331.892 74.5937C336.585 74.5937 340.084 75.6177 342.388 77.6657C344.777 79.6284 345.972 82.7004 345.972 86.8817ZM332.916 81.3777C330.014 81.3777 327.07 83.9804 324.084 89.1857C321.182 94.3057 319.006 100.492 317.556 107.746C322.505 107.404 326.814 105.143 330.484 100.962C334.238 96.6951 336.116 91.9164 336.116 86.6257C336.116 84.8337 335.86 83.5111 335.348 82.6577C334.836 81.8044 334.025 81.3777 332.916 81.3777ZM379.978 126.05C379.978 124.514 380.148 122.594 380.49 120.29C380.916 117.986 381.727 114.316 382.922 109.282C384.116 104.418 384.884 100.919 385.226 98.7857C385.567 96.6524 385.738 94.8604 385.738 93.4097C385.738 91.2764 385.354 89.6551 384.586 88.5457C383.818 87.4364 382.666 86.8817 381.13 86.8817C379.082 86.8817 377.162 87.9484 375.37 90.0817C373.663 92.1297 372.255 94.9884 371.146 98.6577L362.442 139.746H344.01L357.578 75.7457H376.01L374.602 82.4017C376.735 80.0124 379.039 78.2204 381.514 77.0257C383.988 75.8311 386.676 75.2337 389.578 75.2337C394.1 75.2337 397.599 76.4711 400.074 78.9457C402.548 81.4204 403.786 85.0044 403.786 89.6977C403.786 91.6604 403.53 94.0071 403.018 96.7377C402.591 99.3831 401.695 103.479 400.33 109.026C399.22 113.378 398.495 116.45 398.154 118.242C397.812 120.034 397.642 121.527 397.642 122.722C397.642 124.514 398.068 125.879 398.922 126.818C399.775 127.671 401.055 128.098 402.762 128.098C404.895 128.098 406.73 127.372 408.266 125.922C409.802 124.471 411.551 121.442 413.514 116.834H418.89C416.159 124.77 412.831 130.7 408.906 134.626C405.066 138.551 400.458 140.514 395.082 140.514C390.303 140.514 386.591 139.234 383.946 136.674C381.3 134.028 379.978 130.487 379.978 126.05Z" fill="#744E15"/>
</g>
<g filter="url(#filter3_f_248_276)">
<path d="M43.7857 105.665C43.7857 112.748 45.023 117.868 47.4977 121.025C49.9724 124.097 53.855 125.633 59.1457 125.633C64.0097 125.633 68.6177 124.524 72.9697 122.305C77.407 120.001 81.119 116.844 84.1057 112.833L87.0497 114.113C84.2337 121.366 79.327 127.169 72.3297 131.521C65.4177 135.788 58.1644 137.921 50.5697 137.921C40.671 137.921 33.503 135.446 29.0657 130.497C24.7137 125.462 22.5377 117.441 22.5377 106.433C22.5377 99.3502 23.4337 91.9689 25.2257 84.2889C27.0177 76.6089 29.4924 69.7395 32.6497 63.6809C36.7457 55.9155 41.695 50.0275 47.4977 46.0169C53.3857 41.9209 59.9564 39.8729 67.2097 39.8729C74.0364 39.8729 79.2844 41.3662 82.9537 44.3529C86.7084 47.2542 88.5857 51.4782 88.5857 57.0249C88.5857 60.8649 87.8177 63.8089 86.2817 65.8569C84.7457 67.8195 82.527 68.8009 79.6257 68.8009C78.175 68.8009 76.8097 68.5449 75.5297 68.0329C74.335 67.4355 73.2684 66.5822 72.3297 65.4729C73.8657 64.7049 75.231 63.1689 76.4257 60.8649C77.6204 58.4755 78.2177 56.0862 78.2177 53.6969C78.2177 51.2222 77.535 49.3022 76.1697 47.9369C74.8044 46.5715 72.8844 45.8889 70.4097 45.8889C66.655 45.8889 62.943 48.1929 59.2737 52.8009C55.6044 57.3235 52.4044 63.5955 49.6737 71.6169C47.7964 77.0782 46.3457 82.7955 45.3217 88.7689C44.2977 94.6569 43.7857 100.289 43.7857 105.665ZM125.459 77.7609V78.6569L126.867 71.8729H145.299L136.083 115.393C135.912 116.161 135.784 116.886 135.699 117.569C135.613 118.166 135.571 118.806 135.571 119.489C135.571 121.366 135.997 122.774 136.851 123.713C137.704 124.566 139.027 124.993 140.819 124.993C143.037 124.993 145.043 123.969 146.835 121.921C148.627 119.788 150.077 116.801 151.187 112.961H156.563C153.832 120.812 150.291 126.742 145.939 130.753C141.587 134.678 136.552 136.641 130.835 136.641C127.165 136.641 124.221 135.617 122.003 133.569C119.869 131.521 118.632 128.62 118.291 124.865C115.645 128.79 112.701 131.734 109.459 133.697C106.301 135.66 102.888 136.641 99.2187 136.641C93.928 136.641 89.7467 134.849 86.6747 131.265C83.688 127.681 82.1947 122.604 82.1947 116.033C82.1947 111.254 82.92 106.262 84.3707 101.057C85.8214 95.8515 87.8267 91.1155 90.3867 86.8489C93.544 81.8142 97.2134 77.9742 101.395 75.3289C105.576 72.5982 110.141 71.2329 115.091 71.2329C118.419 71.2329 120.979 71.8302 122.771 73.0249C124.563 74.1342 125.459 75.7129 125.459 77.7609ZM124.307 84.0329C124.307 82.7529 123.837 81.6435 122.899 80.7049C121.96 79.6809 120.68 79.1689 119.059 79.1689C114.365 79.1689 110.184 83.0942 106.515 90.9449C102.931 98.7955 101.139 106.561 101.139 114.241C101.139 117.569 101.608 120.086 102.547 121.793C103.485 123.414 105.149 124.225 107.539 124.225C109.757 124.225 111.891 123.158 113.939 121.025C116.072 118.892 117.48 116.204 118.163 112.961L124.307 84.0329ZM182.466 122.177C182.466 120.641 182.636 118.721 182.978 116.417C183.404 114.113 184.215 110.444 185.41 105.409C186.604 100.545 187.372 97.0462 187.714 94.9129C188.055 92.7795 188.226 90.9875 188.226 89.5369C188.226 87.4035 187.842 85.7822 187.074 84.6729C186.306 83.5635 185.154 83.0089 183.618 83.0089C181.57 83.0089 179.65 84.0755 177.858 86.2089C176.151 88.2569 174.743 91.1155 173.634 94.7849L164.93 135.873H146.498L160.066 71.8729H178.498L177.09 78.5289C179.223 76.1395 181.527 74.3475 184.002 73.1529C186.476 71.9582 189.164 71.3609 192.066 71.3609C196.588 71.3609 200.087 72.5982 202.562 75.0729C205.036 77.5475 206.274 81.1315 206.274 85.8249C206.274 87.7875 206.018 90.1342 205.506 92.8649C205.079 95.5102 204.183 99.6062 202.818 105.153C201.708 109.505 200.983 112.577 200.642 114.369C200.3 116.161 200.13 117.654 200.13 118.849C200.13 120.641 200.556 122.006 201.41 122.945C202.263 123.798 203.543 124.225 205.25 124.225C207.383 124.225 209.218 123.5 210.754 122.049C212.29 120.598 214.039 117.569 216.002 112.961H221.378C218.647 120.897 215.319 126.828 211.394 130.753C207.554 134.678 202.946 136.641 197.57 136.641C192.791 136.641 189.079 135.361 186.434 132.801C183.788 130.156 182.466 126.614 182.466 122.177ZM220.595 71.8729H224.819L228.659 54.2089L247.603 51.6489L243.251 71.8729H250.931L249.907 76.9929H242.227L234.035 115.393C233.864 116.161 233.736 116.886 233.651 117.569C233.565 118.166 233.523 118.806 233.523 119.489C233.523 121.196 233.907 122.433 234.675 123.201C235.528 123.884 236.893 124.225 238.771 124.225C241.16 124.225 243.421 123.201 245.555 121.153C247.688 119.02 249.267 116.289 250.291 112.961H255.667C252.936 120.726 249.267 126.614 244.659 130.625C240.051 134.636 234.76 136.641 228.787 136.641C224.52 136.641 221.149 135.318 218.675 132.673C216.285 129.942 215.091 126.145 215.091 121.281C215.091 120.172 215.176 118.934 215.347 117.569C215.517 116.118 215.773 114.582 216.115 112.961L223.795 76.9929H219.571L220.595 71.8729ZM296.719 83.0089C296.719 90.0915 293.817 96.2782 288.015 101.569C282.212 106.774 275.3 109.59 267.279 110.017C267.193 111.468 267.108 112.577 267.023 113.345C267.023 114.028 267.023 114.625 267.023 115.137C267.023 119.062 267.663 121.836 268.943 123.457C270.308 125.078 272.74 125.889 276.239 125.889C280.249 125.889 283.919 124.993 287.247 123.201C290.66 121.324 294.543 117.91 298.895 112.961H303.247C298.297 120.982 292.921 126.956 287.119 130.881C281.316 134.721 274.959 136.641 268.047 136.641C261.476 136.641 256.484 134.934 253.071 131.521C249.743 128.108 248.079 123.03 248.079 116.289C248.079 111.425 248.847 106.262 250.383 100.801C251.919 95.3395 253.967 90.4755 256.527 86.2089C259.684 81.0889 263.439 77.2489 267.791 74.6889C272.228 72.0435 277.177 70.7209 282.639 70.7209C287.332 70.7209 290.831 71.7449 293.135 73.7929C295.524 75.7555 296.719 78.8275 296.719 83.0089ZM283.663 77.5049C280.761 77.5049 277.817 80.1075 274.831 85.3129C271.929 90.4329 269.753 96.6195 268.303 103.873C273.252 103.532 277.561 101.27 281.231 97.0889C284.985 92.8222 286.863 88.0435 286.863 82.7529C286.863 80.9609 286.607 79.6382 286.095 78.7849C285.583 77.9315 284.772 77.5049 283.663 77.5049ZM345.972 83.0089C345.972 90.0915 343.07 96.2782 337.268 101.569C331.465 106.774 324.553 109.59 316.532 110.017C316.446 111.468 316.361 112.577 316.276 113.345C316.276 114.028 316.276 114.625 316.276 115.137C316.276 119.062 316.916 121.836 318.196 123.457C319.561 125.078 321.993 125.889 325.492 125.889C329.502 125.889 333.172 124.993 336.5 123.201C339.913 121.324 343.796 117.91 348.148 112.961H352.5C347.55 120.982 342.174 126.956 336.372 130.881C330.569 134.721 324.212 136.641 317.3 136.641C310.729 136.641 305.737 134.934 302.324 131.521C298.996 128.108 297.332 123.03 297.332 116.289C297.332 111.425 298.1 106.262 299.636 100.801C301.172 95.3395 303.22 90.4755 305.78 86.2089C308.937 81.0889 312.692 77.2489 317.044 74.6889C321.481 72.0435 326.43 70.7209 331.892 70.7209C336.585 70.7209 340.084 71.7449 342.388 73.7929C344.777 75.7555 345.972 78.8275 345.972 83.0089ZM332.916 77.5049C330.014 77.5049 327.07 80.1075 324.084 85.3129C321.182 90.4329 319.006 96.6195 317.556 103.873C322.505 103.532 326.814 101.27 330.484 97.0889C334.238 92.8222 336.116 88.0435 336.116 82.7529C336.116 80.9609 335.86 79.6382 335.348 78.7849C334.836 77.9315 334.025 77.5049 332.916 77.5049ZM379.978 122.177C379.978 120.641 380.148 118.721 380.49 116.417C380.916 114.113 381.727 110.444 382.922 105.409C384.116 100.545 384.884 97.0462 385.226 94.9129C385.567 92.7795 385.738 90.9875 385.738 89.5369C385.738 87.4035 385.354 85.7822 384.586 84.6729C383.818 83.5635 382.666 83.0089 381.13 83.0089C379.082 83.0089 377.162 84.0755 375.37 86.2089C373.663 88.2569 372.255 91.1155 371.146 94.7849L362.442 135.873H344.01L357.578 71.8729H376.01L374.602 78.5289C376.735 76.1395 379.039 74.3475 381.514 73.1529C383.988 71.9582 386.676 71.3609 389.578 71.3609C394.1 71.3609 397.599 72.5982 400.074 75.0729C402.548 77.5475 403.786 81.1315 403.786 85.8249C403.786 87.7875 403.53 90.1342 403.018 92.8649C402.591 95.5102 401.695 99.6062 400.33 105.153C399.22 109.505 398.495 112.577 398.154 114.369C397.812 116.161 397.642 117.654 397.642 118.849C397.642 120.641 398.068 122.006 398.922 122.945C399.775 123.798 401.055 124.225 402.762 124.225C404.895 124.225 406.73 123.5 408.266 122.049C409.802 120.598 411.551 117.569 413.514 112.961H418.89C416.159 120.897 412.831 126.828 408.906 130.753C405.066 134.678 400.458 136.641 395.082 136.641C390.303 136.641 386.591 135.361 383.946 132.801C381.3 130.156 379.978 126.614 379.978 122.177Z" fill="#FFB800"/>
</g>
<g filter="url(#filter4_i_248_276)">
<path d="M43.7857 101.792C43.7857 108.875 45.023 113.995 47.4977 117.152C49.9724 120.224 53.855 121.76 59.1457 121.76C64.0097 121.76 68.6177 120.651 72.9697 118.432C77.407 116.128 81.119 112.971 84.1057 108.96L87.0497 110.24C84.2337 117.493 79.327 123.296 72.3297 127.648C65.4177 131.915 58.1644 134.048 50.5697 134.048C40.671 134.048 33.503 131.573 29.0657 126.624C24.7137 121.589 22.5377 113.568 22.5377 102.56C22.5377 95.4773 23.4337 88.096 25.2257 80.416C27.0177 72.736 29.4924 65.8666 32.6497 59.808C36.7457 52.0426 41.695 46.1546 47.4977 42.144C53.3857 38.048 59.9564 36 67.2097 36C74.0364 36 79.2844 37.4933 82.9537 40.48C86.7084 43.3813 88.5857 47.6053 88.5857 53.152C88.5857 56.992 87.8177 59.936 86.2817 61.984C84.7457 63.9466 82.527 64.928 79.6257 64.928C78.175 64.928 76.8097 64.672 75.5297 64.16C74.335 63.5627 73.2684 62.7093 72.3297 61.6C73.8657 60.832 75.231 59.296 76.4257 56.992C77.6204 54.6026 78.2177 52.2133 78.2177 49.824C78.2177 47.3493 77.535 45.4293 76.1697 44.064C74.8044 42.6986 72.8844 42.016 70.4097 42.016C66.655 42.016 62.943 44.32 59.2737 48.928C55.6044 53.4506 52.4044 59.7226 49.6737 67.744C47.7964 73.2053 46.3457 78.9226 45.3217 84.896C44.2977 90.784 43.7857 96.416 43.7857 101.792ZM125.459 73.888V74.784L126.867 68H145.299L136.083 111.52C135.912 112.288 135.784 113.013 135.699 113.696C135.613 114.293 135.571 114.933 135.571 115.616C135.571 117.493 135.997 118.901 136.851 119.84C137.704 120.693 139.027 121.12 140.819 121.12C143.037 121.12 145.043 120.096 146.835 118.048C148.627 115.915 150.077 112.928 151.187 109.088H156.563C153.832 116.939 150.291 122.869 145.939 126.88C141.587 130.805 136.552 132.768 130.835 132.768C127.165 132.768 124.221 131.744 122.003 129.696C119.869 127.648 118.632 124.747 118.291 120.992C115.645 124.917 112.701 127.861 109.459 129.824C106.301 131.787 102.888 132.768 99.2187 132.768C93.928 132.768 89.7467 130.976 86.6747 127.392C83.688 123.808 82.1947 118.731 82.1947 112.16C82.1947 107.381 82.92 102.389 84.3707 97.184C85.8214 91.9787 87.8267 87.2427 90.3867 82.976C93.544 77.9413 97.2134 74.1013 101.395 71.456C105.576 68.7253 110.141 67.36 115.091 67.36C118.419 67.36 120.979 67.9573 122.771 69.152C124.563 70.2613 125.459 71.84 125.459 73.888ZM124.307 80.16C124.307 78.88 123.837 77.7706 122.899 76.832C121.96 75.808 120.68 75.296 119.059 75.296C114.365 75.296 110.184 79.2213 106.515 87.072C102.931 94.9227 101.139 102.688 101.139 110.368C101.139 113.696 101.608 116.213 102.547 117.92C103.485 119.541 105.149 120.352 107.539 120.352C109.757 120.352 111.891 119.285 113.939 117.152C116.072 115.019 117.48 112.331 118.163 109.088L124.307 80.16ZM182.466 118.304C182.466 116.768 182.636 114.848 182.978 112.544C183.404 110.24 184.215 106.571 185.41 101.536C186.604 96.672 187.372 93.1733 187.714 91.04C188.055 88.9066 188.226 87.1146 188.226 85.664C188.226 83.5306 187.842 81.9093 187.074 80.8C186.306 79.6906 185.154 79.136 183.618 79.136C181.57 79.136 179.65 80.2026 177.858 82.336C176.151 84.384 174.743 87.2426 173.634 90.912L164.93 132H146.498L160.066 68H178.498L177.09 74.656C179.223 72.2666 181.527 70.4747 184.002 69.28C186.476 68.0853 189.164 67.488 192.066 67.488C196.588 67.488 200.087 68.7253 202.562 71.2C205.036 73.6746 206.274 77.2586 206.274 81.952C206.274 83.9146 206.018 86.2613 205.506 88.992C205.079 91.6373 204.183 95.7333 202.818 101.28C201.708 105.632 200.983 108.704 200.642 110.496C200.3 112.288 200.13 113.781 200.13 114.976C200.13 116.768 200.556 118.133 201.41 119.072C202.263 119.925 203.543 120.352 205.25 120.352C207.383 120.352 209.218 119.627 210.754 118.176C212.29 116.725 214.039 113.696 216.002 109.088H221.378C218.647 117.024 215.319 122.955 211.394 126.88C207.554 130.805 202.946 132.768 197.57 132.768C192.791 132.768 189.079 131.488 186.434 128.928C183.788 126.283 182.466 122.741 182.466 118.304ZM220.595 68H224.819L228.659 50.336L247.603 47.776L243.251 68H250.931L249.907 73.12H242.227L234.035 111.52C233.864 112.288 233.736 113.013 233.651 113.696C233.565 114.293 233.523 114.933 233.523 115.616C233.523 117.323 233.907 118.56 234.675 119.328C235.528 120.011 236.893 120.352 238.771 120.352C241.16 120.352 243.421 119.328 245.555 117.28C247.688 115.147 249.267 112.416 250.291 109.088H255.667C252.936 116.853 249.267 122.741 244.659 126.752C240.051 130.763 234.76 132.768 228.787 132.768C224.52 132.768 221.149 131.445 218.675 128.8C216.285 126.069 215.091 122.272 215.091 117.408C215.091 116.299 215.176 115.061 215.347 113.696C215.517 112.245 215.773 110.709 216.115 109.088L223.795 73.12H219.571L220.595 68ZM296.719 79.136C296.719 86.2186 293.817 92.4053 288.015 97.696C282.212 102.901 275.3 105.717 267.279 106.144C267.193 107.595 267.108 108.704 267.023 109.472C267.023 110.155 267.023 110.752 267.023 111.264C267.023 115.189 267.663 117.963 268.943 119.584C270.308 121.205 272.74 122.016 276.239 122.016C280.249 122.016 283.919 121.12 287.247 119.328C290.66 117.451 294.543 114.037 298.895 109.088H303.247C298.297 117.109 292.921 123.083 287.119 127.008C281.316 130.848 274.959 132.768 268.047 132.768C261.476 132.768 256.484 131.061 253.071 127.648C249.743 124.235 248.079 119.157 248.079 112.416C248.079 107.552 248.847 102.389 250.383 96.928C251.919 91.4666 253.967 86.6026 256.527 82.336C259.684 77.216 263.439 73.376 267.791 70.816C272.228 68.1707 277.177 66.848 282.639 66.848C287.332 66.848 290.831 67.872 293.135 69.92C295.524 71.8826 296.719 74.9546 296.719 79.136ZM283.663 73.632C280.761 73.632 277.817 76.2346 274.831 81.44C271.929 86.56 269.753 92.7467 268.303 100C273.252 99.6587 277.561 97.3973 281.231 93.216C284.985 88.9493 286.863 84.1706 286.863 78.88C286.863 77.088 286.607 75.7653 286.095 74.912C285.583 74.0586 284.772 73.632 283.663 73.632ZM345.972 79.136C345.972 86.2186 343.07 92.4053 337.268 97.696C331.465 102.901 324.553 105.717 316.532 106.144C316.446 107.595 316.361 108.704 316.276 109.472C316.276 110.155 316.276 110.752 316.276 111.264C316.276 115.189 316.916 117.963 318.196 119.584C319.561 121.205 321.993 122.016 325.492 122.016C329.502 122.016 333.172 121.12 336.5 119.328C339.913 117.451 343.796 114.037 348.148 109.088H352.5C347.55 117.109 342.174 123.083 336.372 127.008C330.569 130.848 324.212 132.768 317.3 132.768C310.729 132.768 305.737 131.061 302.324 127.648C298.996 124.235 297.332 119.157 297.332 112.416C297.332 107.552 298.1 102.389 299.636 96.928C301.172 91.4666 303.22 86.6026 305.78 82.336C308.937 77.216 312.692 73.376 317.044 70.816C321.481 68.1707 326.43 66.848 331.892 66.848C336.585 66.848 340.084 67.872 342.388 69.92C344.777 71.8826 345.972 74.9546 345.972 79.136ZM332.916 73.632C330.014 73.632 327.07 76.2346 324.084 81.44C321.182 86.56 319.006 92.7467 317.556 100C322.505 99.6587 326.814 97.3973 330.484 93.216C334.238 88.9493 336.116 84.1706 336.116 78.88C336.116 77.088 335.86 75.7653 335.348 74.912C334.836 74.0586 334.025 73.632 332.916 73.632ZM379.978 118.304C379.978 116.768 380.148 114.848 380.49 112.544C380.916 110.24 381.727 106.571 382.922 101.536C384.116 96.672 384.884 93.1733 385.226 91.04C385.567 88.9066 385.738 87.1146 385.738 85.664C385.738 83.5306 385.354 81.9093 384.586 80.8C383.818 79.6906 382.666 79.136 381.13 79.136C379.082 79.136 377.162 80.2026 375.37 82.336C373.663 84.384 372.255 87.2426 371.146 90.912L362.442 132H344.01L357.578 68H376.01L374.602 74.656C376.735 72.2666 379.039 70.4747 381.514 69.28C383.988 68.0853 386.676 67.488 389.578 67.488C394.1 67.488 397.599 68.7253 400.074 71.2C402.548 73.6746 403.786 77.2586 403.786 81.952C403.786 83.9146 403.53 86.2613 403.018 88.992C402.591 91.6373 401.695 95.7333 400.33 101.28C399.22 105.632 398.495 108.704 398.154 110.496C397.812 112.288 397.642 113.781 397.642 114.976C397.642 116.768 398.068 118.133 398.922 119.072C399.775 119.925 401.055 120.352 402.762 120.352C404.895 120.352 406.73 119.627 408.266 118.176C409.802 116.725 411.551 113.696 413.514 109.088H418.89C416.159 117.024 412.831 122.955 408.906 126.88C405.066 130.805 400.458 132.768 395.082 132.768C390.303 132.768 386.591 131.488 383.946 128.928C381.3 126.283 379.978 122.741 379.978 118.304Z" fill="#FFE9B1"/>
</g>
<defs>
<filter id="filter0_f_248_276" x="0" y="25" width="445" height="149" filterUnits="userSpaceOnUse" color-interpolation-filters="sRGB">
<feFlood flood-opacity="0" result="BackgroundImageFix"/>
<feBlend mode="normal" in="SourceGraphic" in2="BackgroundImageFix" result="shape"/>
<feGaussianBlur stdDeviation="0.5" result="effect1_foregroundBlur_248_276"/>
</filter>
<filter id="filter1_f_248_276" x="0" y="21" width="445" height="149" filterUnits="userSpaceOnUse" color-interpolation-filters="sRGB">
<feFlood flood-opacity="0" result="BackgroundImageFix"/>
<feBlend mode="normal" in="SourceGraphic" in2="BackgroundImageFix" result="shape"/>
<feGaussianBlur stdDeviation="0.5" result="effect1_foregroundBlur_248_276"/>
</filter>
<filter id="filter2_f_248_276" x="21.5377" y="42.7457" width="398.352" height="100.048" filterUnits="userSpaceOnUse" color-interpolation-filters="sRGB">
<feFlood flood-opacity="0" result="BackgroundImageFix"/>
<feBlend mode="normal" in="SourceGraphic" in2="BackgroundImageFix" result="shape"/>
<feGaussianBlur stdDeviation="0.5" result="effect1_foregroundBlur_248_276"/>
</filter>
<filter id="filter3_f_248_276" x="21.5377" y="38.8729" width="398.352" height="100.048" filterUnits="userSpaceOnUse" color-interpolation-filters="sRGB">
<feFlood flood-opacity="0" result="BackgroundImageFix"/>
<feBlend mode="normal" in="SourceGraphic" in2="BackgroundImageFix" result="shape"/>
<feGaussianBlur stdDeviation="0.5" result="effect1_foregroundBlur_248_276"/>
</filter>
<filter id="filter4_i_248_276" x="22.5377" y="36" width="396.352" height="98.548" filterUnits="userSpaceOnUse" color-interpolation-filters="sRGB">
<feFlood flood-opacity="0" result="BackgroundImageFix"/>
<feBlend mode="normal" in="SourceGraphic" in2="BackgroundImageFix" result="shape"/>
<feColorMatrix in="SourceAlpha" type="matrix" values="0 0 0 0 0 0 0 0 0 0 0 0 0 0 0 0 0 0 127 0" result="hardAlpha"/>
<feOffset dy="0.5"/>
<feGaussianBlur stdDeviation="0.25"/>
<feComposite in2="hardAlpha" operator="arithmetic" k2="-1" k3="1"/>
<feColorMatrix type="matrix" values="0 0 0 0 1 0 0 0 0 0.72 0 0 0 0 0 0 0 0 1 0"/>
<feBlend mode="normal" in2="shape" result="effect1_innerShadow_248_276"/>
</filter>
</defs>
</svg>
